# xmcd
#
# Track frame offsets:
#	150
#	30584
#	57602
#	92041
#	149210
#	189790
#	230441
#	251891
#	277563
#	317980
#
# Disc length: 4779 seconds
#
# Revision: 1
# Processed by: cddbd v1.5.2PL0 Copyright (c) Steve Scherf et al.
# Submitted via: audiograbber 1.83.01
#
DISCID=8e12a90a
DTITLE=Grateful Dead - 82-09-17M Cumberland County Civic Centre, Portland ME
DYEAR=1900
DGENRE=
TTITLE0=Touch Of Grey
TTITLE1=Men Smart, Women Smarter
TTITLE2=High Time
TTITLE3=Estimated Prophet
TTITLE4=Eyes Of The World
TTITLE5=Drums
TTITLE6=The Other One
TTITLE7=Going Down The Road Feeling Bad
TTITLE8=Morning Dew
TTITLE9=Sugar Magnolia
EXTD=
EXTT0=
EXTT1=
EXTT2=
EXTT3=
EXTT4=
EXTT5=
EXTT6=
EXTT7=
EXTT8=
EXTT9=
PLAYORDER=
